{
 "accessors": [
  {
   "componentType": 5126,
   "type": "VEC3",
   "count": 16,
   "max": [
    8.228010177612305,
    6.019189834594727,
    10.24470043182373
   ],
   "min": [
    -8.228010177612305,
    -5.123159885406494,
    -0.22556200623512268
   ],
   "bufferView": 0
  },
  {
   "componentType": 5126,
   "type": "VEC3",
   "count": 16,
   "bufferView": 1
  },
  {
   "componentType": 5121,
   "type": "SCALAR",
   "count": 24,
   "bufferView": 2
  },
  {
   "componentType": 5126,
   "type": "VEC3",
   "count": 1168,
   "max": [
    -5.036769866943359,
    -2.978300094604492,
    2.6149399280548096
   ],
   "min": [
    -6.182730197906494,
    -3.8466100692749023,
    1.933859944343567
   ],
   "bufferView": 3
  },
  {
   "componentType": 5126,
   "type": "VEC3",
   "count": 1168,
   "bufferView": 4
  },
  {
   "componentType": 5123,
   "type": "SCALAR",
   "count": 2904,
   "bufferView": 5
  },
  {
   "componentType": 5126,
   "type": "VEC3",
   "count": 1168,
   "max": [
    6.16795015335083,
    -3.0520200729370117,
    2.6149399280548096
   ],
   "min": [
    5.021989822387695,
    -3.9203200340270996,
    1.933859944343567
   ],
   "bufferView": 6
  },
  {
   "componentType": 5126,
   "type": "VEC3",
   "count": 1168,
   "bufferView": 7
  },
  {
   "componentType": 5123,
   "type": "SCALAR",
   "count": 2904,
   "bufferView": 8
  },
  {
   "componentType": 5126,
   "type": "VEC3",
   "count": 1168,
   "max": [
    -5.036769866943359,
    5.040060043334961,
    2.6149399280548096
   ],
   "min": [
    -6.182730197906494,
    4.171750068664551,
    1.933859944343567
   ],
   "bufferView": 9
  },
  {
   "componentType": 5126,
   "type": "VEC3",
   "count": 1168,
   "bufferView": 10
  },
  {
   "componentType": 5123,
   "type": "SCALAR",
   "count": 2904,
   "bufferView": 11
  },
  {
   "componentType": 5126,
   "type": "VEC3",
   "count": 100,
   "max": [
    -5.063600063323975,
    5.135389804840088,
    1.9467300176620483
   ],
   "min": [
    -6.185939788818359,
    4.013050079345703,
    -0.244036003947258
   ],
   "bufferView": 12
  },
  {
   "componentType": 5126,
   "type": "VEC3",
   "count": 100,
   "bufferView": 13
  },
  {
   "componentType": 5121,
   "type": "SCALAR",
   "count": 204,
   "bufferView": 14
  },
  {
   "componentType": 5126,
   "type": "VEC3",
   "count": 1168,
   "max": [
    6.175320148468018,
    4.929490089416504,
    2.6149399280548096
   ],
   "min": [
    5.029369831085205,
    4.061180114746094,
    1.933859944343567
   ],
   "bufferView": 15
  },
  {
   "componentType": 5126,
   "type": "VEC3",
   "count": 1168,
   "bufferView": 16
  },
  {
   "componentType": 5123,
   "type": "SCALAR",
   "count": 2904,
   "bufferView": 17
  },
  {
   "componentType": 5126,
   "type": "VEC3",
   "count": 100,
   "max": [
    -5.063600063323975,
    5.135389804840088,
    1.9467300176620483
   ],
   "min": [
    -6.185939788818359,
    4.013050079345703,
    -0.244036003947258
   ],
   "bufferView": 18
  },
  {
   "componentType": 5126,
   "type": "VEC3",
   "count": 100,
   "bufferView": 19
  },
  {
   "componentType": 5121,
   "type": "SCALAR",
   "count": 204,
   "bufferView": 20
  },
  {
   "componentType": 5126,
   "type": "VEC3",
   "count": 100,
   "max": [
    -5.063600063323975,
    5.135389804840088,
    1.9467300176620483
   ],
   "min": [
    -6.185939788818359,
    4.013050079345703,
    -0.244036003947258
   ],
   "bufferView": 21
  },
  {
   "componentType": 5126,
   "type": "VEC3",
   "count": 100,
   "bufferView": 22
  },
  {
   "componentType": 5121,
   "type": "SCALAR",
   "count": 204,
   "bufferView": 23
  },
  {
   "componentType": 5126,
   "type": "VEC3",
   "count": 100,
   "max": [
    -5.063600063323975,
    5.135389804840088,
    1.9467300176620483
   ],
   "min": [
    -6.185939788818359,
    4.013050079345703,
    -0.244036003947258
   ],
   "bufferView": 24
  },
  {
   "componentType": 5126,
   "type": "VEC3",
   "count": 100,
   "bufferView": 25
  },
  {
   "componentType": 5121,
   "type": "SCALAR",
   "count": 204,
   "bufferView": 26
  },
  {
   "componentType": 5126,
   "type": "VEC3",
   "count": 100,
   "max": [
    -5.063600063323975,
    5.135389804840088,
    1.9467300176620483
   ],
   "min": [
    -6.185939788818359,
    4.013050079345703,
    -0.244036003947258
   ],
   "bufferView": 27
  },
  {
   "componentType": 5126,
   "type": "VEC3",
   "count": 100,
   "bufferView": 28
  },
  {
   "componentType": 5121,
   "type": "SCALAR",
   "count": 204,
   "bufferView": 29
  },
  {
   "componentType": 5126,
   "type": "VEC3",
   "count": 100,
   "max": [
    -5.063600063323975,
    5.135389804840088,
    1.9467300176620483
   ],
   "min": [
    -6.185939788818359,
    4.013050079345703,
    -0.244036003947258
   ],
   "bufferView": 30
  },
  {
   "componentType": 5126,
   "type": "VEC3",
   "count": 100,
   "bufferView": 31
  },
  {
   "componentType": 5121,
   "type": "SCALAR",
   "count": 204,
   "bufferView": 32
  },
  {
   "componentType": 5126,
   "type": "VEC3",
   "count": 48,
   "max": [
    -1.535290002822876,
    6.0543999671936035,
    6.168950080871582
   ],
   "min": [
    -4.074729919433594,
    5.861700057983398,
    2.742990016937256
   ],
   "bufferView": 33
  },
  {
   "componentType": 5126,
   "type": "VEC3",
   "count": 48,
   "bufferView": 34
  },
  {
   "componentType": 5121,
   "type": "SCALAR",
   "count": 84,
   "bufferView": 35
  },
  {
   "componentType": 5126,
   "type": "VEC3",
   "count": 56,
   "max": [
    4.294980049133301,
    6.0543999671936035,
    6.046209812164307
   ],
   "min": [
    1.7555299997329712,
    5.861700057983398,
    2.6202399730682373
   ],
   "bufferView": 36
  },
  {
   "componentType": 5126,
   "type": "VEC3",
   "count": 56,
   "bufferView": 37
  },
  {
   "componentType": 5126,
   "type": "VEC2",
   "count": 56,
   "bufferView": 38
  },
  {
   "componentType": 5121,
   "type": "SCALAR",
   "count": 84,
   "bufferView": 39
  },
  {
   "componentType": 5126,
   "type": "VEC3",
   "count": 48,
   "max": [
    4.291289806365967,
    -4.956560134887695,
    6.40077018737793
   ],
   "min": [
    1.7518500089645386,
    -5.1492600440979,
    2.9748001098632812
   ],
   "bufferView": 40
  },
  {
   "componentType": 5126,
   "type": "VEC3",
   "count": 48,
   "bufferView": 41
  },
  {
   "componentType": 5121,
   "type": "SCALAR",
   "count": 84,
   "bufferView": 42
  },
  {
   "componentType": 5126,
   "type": "VEC3",
   "count": 84,
   "max": [
    -7.818130016326904,
    3.9006500244140625,
    7.051330089569092
   ],
   "min": [
    -8.279760360717773,
    -2.8648900985717773,
    2.9980199337005615
   ],
   "bufferView": 43
  },
  {
   "componentType": 5126,
   "type": "VEC3",
   "count": 84,
   "bufferView": 44
  },
  {
   "componentType": 5121,
   "type": "SCALAR",
   "count": 156,
   "bufferView": 45
  },
  {
   "componentType": 5126,
   "type": "VEC3",
   "count": 1168,
   "max": [
    0.5803329944610596,
    4.951600074768066,
    2.6149399280548096
   ],
   "min": [
    -0.565625011920929,
    4.083290100097656,
    1.933859944343567
   ],
   "bufferView": 46
  },
  {
   "componentType": 5126,
   "type": "VEC3",
   "count": 1168,
   "bufferView": 47
  },
  {
   "componentType": 5123,
   "type": "SCALAR",
   "count": 2904,
   "bufferView": 48
  },
  {
   "componentType": 5126,
   "type": "VEC3",
   "count": 1168,
   "max": [
    0.5655900239944458,
    -3.033590078353882,
    2.6149399280548096
   ],
   "min": [
    -0.5803679823875427,
    -3.901900053024292,
    1.933859944343567
   ],
   "bufferView": 49
  },
  {
   "componentType": 5126,
   "type": "VEC3",
   "count": 1168,
   "bufferView": 50
  },
  {
   "componentType": 5123,
   "type": "SCALAR",
   "count": 2904,
   "bufferView": 51
  },
  {
   "componentType": 5126,
   "type": "VEC3",
   "count": 48,
   "max": [
    -1.5389800071716309,
    -4.956560134887695,
    6.278029918670654
   ],
   "min": [
    -4.078420162200928,
    -5.1492600440979,
    2.852060079574585
   ],
   "bufferView": 52
  },
  {
   "componentType": 5126,
   "type": "VEC3",
   "count": 48,
   "bufferView": 53
  },
  {
   "componentType": 5121,
   "type": "SCALAR",
   "count": 84,
   "bufferView": 54
  }
 ],
 "asset": {
  "version": "2.0",
  "generator": "clara.io"
 },
 "bufferViews": [
  {
   "buffer": 0,
   "byteOffset": 0,
   "byteLength": 192,
   "target": 34962,
   "byteStride": 12
  },
  {
   "buffer": 0,
   "byteOffset": 192,
   "byteLength": 192,
   "target": 34962,
   "byteStride": 12
  },
  {
   "buffer": 0,
   "byteOffset": 384,
   "byteLength": 24,
   "target": 34963
  },
  {
   "buffer": 0,
   "byteOffset": 408,
   "byteLength": 14016,
   "target": 34962,
   "byteStride": 12
  },
  {
   "buffer": 0,
   "byteOffset": 14424,
   "byteLength": 14016,
   "target": 34962,
   "byteStride": 12
  },
  {
   "buffer": 0,
   "byteOffset": 28440,
   "byteLength": 5808,
   "target": 34963
  },
  {
   "buffer": 0,
   "byteOffset": 34248,
   "byteLength": 14016,
   "target": 34962,
   "byteStride": 12
  },
  {
   "buffer": 0,
   "byteOffset": 48264,
   "byteLength": 14016,
   "target": 34962,
   "byteStride": 12
  },
  {
   "buffer": 0,
   "byteOffset": 62280,
   "byteLength": 5808,
   "target": 34963
  },
  {
   "buffer": 0,
   "byteOffset": 68088,
   "byteLength": 14016,
   "target": 34962,
   "byteStride": 12
  },
  {
   "buffer": 0,
   "byteOffset": 82104,
   "byteLength": 14016,
   "target": 34962,
   "byteStride": 12
  },
  {
   "buffer": 0,
   "byteOffset": 96120,
   "byteLength": 5808,
   "target": 34963
  },
  {
   "buffer": 0,
   "byteOffset": 101928,
   "byteLength": 1200,
   "target": 34962,
   "byteStride": 12
  },
  {
   "buffer": 0,
   "byteOffset": 103128,
   "byteLength": 1200,
   "target": 34962,
   "byteStride": 12
  },
  {
   "buffer": 0,
   "byteOffset": 104328,
   "byteLength": 204,
   "target": 34963
  },
  {
   "buffer": 0,
   "byteOffset": 104532,
   "byteLength": 14016,
   "target": 34962,
   "byteStride": 12
  },
  {
   "buffer": 0,
   "byteOffset": 118548,
   "byteLength": 14016,
   "target": 34962,
   "byteStride": 12
  },
  {
   "buffer": 0,
   "byteOffset": 132564,
   "byteLength": 5808,
   "target": 34963
  },
  {
   "buffer": 0,
   "byteOffset": 138372,
   "byteLength": 1200,
   "target": 34962,
   "byteStride": 12
  },
  {
   "buffer": 0,
   "byteOffset": 139572,
   "byteLength": 1200,
   "target": 34962,
   "byteStride": 12
  },
  {
   "buffer": 0,
   "byteOffset": 140772,
   "byteLength": 204,
   "target": 34963
  },
  {
   "buffer": 0,
   "byteOffset": 140976,
   "byteLength": 1200,
   "target": 34962,
   "byteStride": 12
  },
  {
   "buffer": 0,
   "byteOffset": 142176,
   "byteLength": 1200,
   "target": 34962,
   "byteStride": 12
  },
  {
   "buffer": 0,
   "byteOffset": 143376,
   "byteLength": 204,
   "target": 34963
  },
  {
   "buffer": 0,
   "byteOffset": 143580,
   "byteLength": 1200,
   "target": 34962,
   "byteStride": 12
  },
  {
   "buffer": 0,
   "byteOffset": 144780,
   "byteLength": 1200,
   "target": 34962,
   "byteStride": 12
  },
  {
   "buffer": 0,
   "byteOffset": 145980,
   "byteLength": 204,
   "target": 34963
  },
  {
   "buffer": 0,
   "byteOffset": 146184,
   "byteLength": 1200,
   "target": 34962,
   "byteStride": 12
  },
  {
   "buffer": 0,
   "byteOffset": 147384,
   "byteLength": 1200,
   "target": 34962,
   "byteStride": 12
  },
  {
   "buffer": 0,
   "byteOffset": 148584,
   "byteLength": 204,
   "target": 34963
  },
  {
   "buffer": 0,
   "byteOffset": 148788,
   "byteLength": 1200,
   "target": 34962,
   "byteStride": 12
  },
  {
   "buffer": 0,
   "byteOffset": 149988,
   "byteLength": 1200,
   "target": 34962,
   "byteStride": 12
  },
  {
   "buffer": 0,
   "byteOffset": 151188,
   "byteLength": 204,
   "target": 34963
  },
  {
   "buffer": 0,
   "byteOffset": 151392,
   "byteLength": 576,
   "target": 34962,
   "byteStride": 12
  },
  {
   "buffer": 0,
   "byteOffset": 151968,
   "byteLength": 576,
   "target": 34962,
   "byteStride": 12
  },
  {
   "buffer": 0,
   "byteOffset": 152544,
   "byteLength": 84,
   "target": 34963
  },
  {
   "buffer": 0,
   "byteOffset": 152628,
   "byteLength": 672,
   "target": 34962,
   "byteStride": 12
  },
  {
   "buffer": 0,
   "byteOffset": 153300,
   "byteLength": 672,
   "target": 34962,
   "byteStride": 12
  },
  {
   "buffer": 0,
   "byteOffset": 153972,
   "byteLength": 448,
   "target": 34962,
   "byteStride": 8
  },
  {
   "buffer": 0,
   "byteOffset": 154420,
   "byteLength": 84,
   "target": 34963
  },
  {
   "buffer": 0,
   "byteOffset": 154504,
   "byteLength": 576,
   "target": 34962,
   "byteStride": 12
  },
  {
   "buffer": 0,
   "byteOffset": 155080,
   "byteLength": 576,
   "target": 34962,
   "byteStride": 12
  },
  {
   "buffer": 0,
   "byteOffset": 155656,
   "byteLength": 84,
   "target": 34963
  },
  {
   "buffer": 0,
   "byteOffset": 155740,
   "byteLength": 1008,
   "target": 34962,
   "byteStride": 12
  },
  {
   "buffer": 0,
   "byteOffset": 156748,
   "byteLength": 1008,
   "target": 34962,
   "byteStride": 12
  },
  {
   "buffer": 0,
   "byteOffset": 157756,
   "byteLength": 156,
   "target": 34963
  },
  {
   "buffer": 0,
   "byteOffset": 157912,
   "byteLength": 14016,
   "target": 34962,
   "byteStride": 12
  },
  {
   "buffer": 0,
   "byteOffset": 171928,
   "byteLength": 14016,
   "target": 34962,
   "byteStride": 12
  },
  {
   "buffer": 0,
   "byteOffset": 185944,
   "byteLength": 5808,
   "target": 34963
  },
  {
   "buffer": 0,
   "byteOffset": 191752,
   "byteLength": 14016,
   "target": 34962,
   "byteStride": 12
  },
  {
   "buffer": 0,
   "byteOffset": 205768,
   "byteLength": 14016,
   "target": 34962,
   "byteStride": 12
  },
  {
   "buffer": 0,
   "byteOffset": 219784,
   "byteLength": 5808,
   "target": 34963
  },
  {
   "buffer": 0,
   "byteOffset": 225592,
   "byteLength": 576,
   "target": 34962,
   "byteStride": 12
  },
  {
   "buffer": 0,
   "byteOffset": 226168,
   "byteLength": 576,
   "target": 34962,
   "byteStride": 12
  },
  {
   "buffer": 0,
   "byteOffset": 226744,
   "byteLength": 84,
   "target": 34963
  }
 ],
 "buffers": [
  {
   "byteLength": 226828,
   "uri": "data:application/octet-stream;base64,"
  }
 ],
 "materials": [
  {
   "name": "Default-Walls",
   "pbrMetallicRoughness": {
    "baseColorFactor": [
     0.8784313725490196,
     0.8784313725490196,
     0.8784313725490196,
     1
    ]
   }
  },
  {
   "name": "Default-Monkey.4",
   "pbrMetallicRoughness": {
    "baseColorFactor": [
     0.6901960784313725,
     0.6901960784313725,
     0.6901960784313725,
     1
    ]
   }
  },
  {
   "name": "Default-Monkey.6",
   "pbrMetallicRoughness": {
    "baseColorFactor": [
     0.6901960784313725,
     0.6901960784313725,
     0.6901960784313725,
     1
    ]
   }
  },
  {
   "name": "Default-Monkey.1",
   "pbrMetallicRoughness": {
    "baseColorFactor": [
     0.6901960784313725,
     0.6901960784313725,
     0.6901960784313725,
     1
    ]
   }
  },
  {
   "name": "Default-Column.1",
   "pbrMetallicRoughness": {
    "baseColorFactor": [
     0.6901960784313725,
     0.6901960784313725,
     0.6901960784313725,
     1
    ]
   }
  },
  {
   "name": "Default-Monkey.3",
   "pbrMetallicRoughness": {
    "baseColorFactor": [
     0.6901960784313725,
     0.6901960784313725,
     0.6901960784313725,
     1
    ]
   }
  },
  {
   "name": "Default-Column.2",
   "pbrMetallicRoughness": {
    "baseColorFactor": [
     0.6901960784313725,
     0.6901960784313725,
     0.6901960784313725,
     1
    ]
   }
  },
  {
   "name": "Default-Column.3",
   "pbrMetallicRoughness": {
    "baseColorFactor": [
     0.6901960784313725,
     0.6901960784313725,
     0.6901960784313725,
     1
    ]
   }
  },
  {
   "name": "Default-Column.4",
   "pbrMetallicRoughness": {
    "baseColorFactor": [
     0.6901960784313725,
     0.6901960784313725,
     0.6901960784313725,
     1
    ]
   }
  },
  {
   "name": "Default-Column.5",
   "pbrMetallicRoughness": {
    "baseColorFactor": [
     0.6901960784313725,
     0.6901960784313725,
     0.6901960784313725,
     1
    ]
   }
  },
  {
   "name": "Default-Column.6",
   "pbrMetallicRoughness": {
    "baseColorFactor": [
     0.6901960784313725,
     0.6901960784313725,
     0.6901960784313725,
     1
    ]
   }
  },
  {
   "name": "Default-Painting.4",
   "pbrMetallicRoughness": {
    "baseColorFactor": [
     0.6901960784313725,
     0.6901960784313725,
     0.6901960784313725,
     1
    ]
   }
  },
  {
   "name": "Default-Painting.3",
   "pbrMetallicRoughness": {
    "baseColorFactor": [
     0.6901960784313725,
     0.6901960784313725,
     0.6901960784313725,
     1
    ]
   }
  },
  {
   "name": "Default-Painting.1",
   "pbrMetallicRoughness": {
    "baseColorFactor": [
     0.7568627450980392,
     0.20784313725490197,
     0.20784313725490197,
     1
    ]
   }
  },
  {
   "name": "Default-Big Painting",
   "pbrMetallicRoughness": {
    "baseColorFactor": [
     0.6901960784313725,
     0.6901960784313725,
     0.6901960784313725,
     1
    ]
   }
  },
  {
   "name": "Default-Monkey.2",
   "pbrMetallicRoughness": {
    "baseColorFactor": [
     0.6901960784313725,
     0.6901960784313725,
     0.6901960784313725,
     1
    ]
   }
  },
  {
   "name": "Default-Monkey.5",
   "pbrMetallicRoughness": {
    "baseColorFactor": [
     0.6901960784313725,
     0.6901960784313725,
     0.6901960784313725,
     1
    ]
   }
  },
  {
   "name": "Default-Painting.2",
   "pbrMetallicRoughness": {
    "baseColorFactor": [
     0.6901960784313725,
     0.6901960784313725,
     0.6901960784313725,
     1
    ]
   }
  }
 ],
 "meshes": [
  {
   "primitives": [
    {
     "indices": 2,
     "material": 0,
     "mode": 4,
     "attributes": {
      "POSITION": 0,
      "NORMAL": 1
     }
    }
   ]
  },
  {
   "primitives": [
    {
     "indices": 5,
     "material": 1,
     "mode": 4,
     "attributes": {
      "POSITION": 3,
      "NORMAL": 4
     }
    }
   ]
  },
  {
   "primitives": [
    {
     "indices": 8,
     "material": 2,
     "mode": 4,
     "attributes": {
      "POSITION": 6,
      "NORMAL": 7
     }
    }
   ]
  },
  {
   "primitives": [
    {
     "indices": 11,
     "material": 3,
     "mode": 4,
     "attributes": {
      "POSITION": 9,
      "NORMAL": 10
     }
    }
   ]
  },
  {
   "primitives": [
    {
     "indices": 14,
     "material": 4,
     "mode": 4,
     "attributes": {
      "POSITION": 12,
      "NORMAL": 13
     }
    }
   ]
  },
  {
   "primitives": [
    {
     "indices": 17,
     "material": 5,
     "mode": 4,
     "attributes": {
      "POSITION": 15,
      "NORMAL": 16
     }
    }
   ]
  },
  {
   "primitives": [
    {
     "indices": 20,
     "material": 6,
     "mode": 4,
     "attributes": {
      "POSITION": 18,
      "NORMAL": 19
     }
    }
   ]
  },
  {
   "primitives": [
    {
     "indices": 23,
     "material": 7,
     "mode": 4,
     "attributes": {
      "POSITION": 21,
      "NORMAL": 22
     }
    }
   ]
  },
  {
   "primitives": [
    {
     "indices": 26,
     "material": 8,
     "mode": 4,
     "attributes": {
      "POSITION": 24,
      "NORMAL": 25
     }
    }
   ]
  },
  {
   "primitives": [
    {
     "indices": 29,
     "material": 9,
     "mode": 4,
     "attributes": {
      "POSITION": 27,
      "NORMAL": 28
     }
    }
   ]
  },
  {
   "primitives": [
    {
     "indices": 32,
     "material": 10,
     "mode": 4,
     "attributes": {
      "POSITION": 30,
      "NORMAL": 31
     }
    }
   ]
  },
  {
   "primitives": [
    {
     "indices": 35,
     "material": 11,
     "mode": 4,
     "attributes": {
      "POSITION": 33,
      "NORMAL": 34
     }
    }
   ]
  },
  {
   "primitives": [
    {
     "indices": 39,
     "material": 12,
     "mode": 4,
     "attributes": {
      "POSITION": 36,
      "NORMAL": 37,
      "TEXCOORD_0": 38
     }
    }
   ]
  },
  {
   "primitives": [
    {
     "indices": 42,
     "material": 13,
     "mode": 4,
     "attributes": {
      "POSITION": 40,
      "NORMAL": 41
     }
    }
   ]
  },
  {
   "primitives": [
    {
     "indices": 45,
     "material": 14,
     "mode": 4,
     "attributes": {
      "POSITION": 43,
      "NORMAL": 44
     }
    }
   ]
  },
  {
   "primitives": [
    {
     "indices": 48,
     "material": 15,
     "mode": 4,
     "attributes": {
      "POSITION": 46,
      "NORMAL": 47
     }
    }
   ]
  },
  {
   "primitives": [
    {
     "indices": 51,
     "material": 16,
     "mode": 4,
     "attributes": {
      "POSITION": 49,
      "NORMAL": 50
     }
    }
   ]
  },
  {
   "primitives": [
    {
     "indices": 54,
     "material": 17,
     "mode": 4,
     "attributes": {
      "POSITION": 52,
      "NORMAL": 53
     }
    }
   ]
  }
 ],
 "nodes": [
  {
   "name": "Museum",
   "translation": [
    0,
    0.21850000321865082,
    0
   ],
   "rotation": [
    -0.7071067811865475,
    0,
    0,
    0.7071067811865476
   ],
   "children": [
    1,
    2,
    3,
    4,
    5,
    6,
    7,
    8,
    9,
    10,
    11,
    12,
    13,
    14,
    15,
    16,
    17,
    18
   ]
  },
  {
   "name": "Walls",
   "mesh": 0
  },
  {
   "name": "Monkey.4",
   "mesh": 1
  },
  {
   "name": "Monkey.6",
   "mesh": 2
  },
  {
   "name": "Monkey.1",
   "mesh": 3
  },
  {
   "name": "Column.1",
   "mesh": 4
  },
  {
   "name": "Monkey.3",
   "mesh": 5
  },
  {
   "name": "Column.2",
   "translation": [
    5.616700172424316,
    0,
    0
   ],
   "mesh": 6
  },
  {
   "name": "Column.3",
   "translation": [
    11.249799728393555,
    0,
    0
   ],
   "mesh": 7
  },
  {
   "name": "Column.4",
   "translation": [
    11.249799728393555,
    -8.049300193786621,
    0
   ],
   "mesh": 8
  },
  {
   "name": "Column.5",
   "translation": [
    5.616700172424316,
    -8.049300193786621,
    0
   ],
   "mesh": 9
  },
  {
   "name": "Column.6",
   "translation": [
    0,
    -8.049300193786621,
    0
   ],
   "mesh": 10
  },
  {
   "name": "Painting.4",
   "mesh": 11
  },
  {
   "name": "Painting.3",
   "mesh": 12
  },
  {
   "name": "Painting.1",
   "mesh": 13
  },
  {
   "name": "Big Painting",
   "mesh": 14
  },
  {
   "name": "Monkey.2",
   "mesh": 15
  },
  {
   "name": "Monkey.5",
   "mesh": 16
  },
  {
   "name": "Painting.2",
   "mesh": 17
  }
 ],
 "scene": 0,
 "scenes": [
  {
   "nodes": [
    0
   ]
  }
 ]
}